<svg version="1.1" xmlns="http://www.w3.org/2000/svg" viewBox="0 0 102.51578330392545 102.38174933206756" width="307.54734991177634" height="307.14524799620267"><!-- svg-source:excalidraw --><metadata></metadata><defs><clipPath id="qpl1mjkmltLn0HGwV9nZi"><rect transform="translate(0 0) rotate(0 51.25789165196272 51.19087466603378)" width="102.51578330392545" height="102.38174933206756"></rect></clipPath><style class="style-fonts">
      </style></defs><g clip-path="url(#qpl1mjkmltLn0HGwV9nZi)"><g stroke-linecap="round" transform="translate(5.700760038811836 3.408077405804761) rotate(0 45.95606486726922 46.523423692791084)"><path d="M22.98 0 C41.89 -3.76, 53.49 4.33, 68.93 0 C89.48 -1.6, 96.88 4.38, 91.91 22.98 C90.83 30.45, 93.43 41.53, 91.91 70.07 C91.78 84.85, 81.47 92.22, 68.93 93.05 C51.6 96.98, 46.4 91.2, 22.98 93.05 C9.91 92.68, 1.1 88.89, 0 70.07 C2.24 56.61, -3.7 36.56, 0 22.98 C-4.7 11.01, 2.72 3.39, 22.98 0" stroke="none" stroke-width="0" fill="#f5e2a1"></path><path d="M22.98 0 C36.04 1.77, 44.62 -1.23, 68.93 0 M22.98 0 C39.33 -0.77, 56.19 1.18, 68.93 0 M68.93 0 C88.08 0.39, 93.26 3.86, 91.91 22.98 M68.93 0 C79.9 3.86, 96.15 3.54, 91.91 22.98 M91.91 22.98 C90.59 37.59, 89.1 54.18, 91.91 70.07 M91.91 22.98 C91.18 32.59, 91.03 44.28, 91.91 70.07 M91.91 70.07 C88.26 87.3, 88.23 91.29, 68.93 93.05 M91.91 70.07 C95.35 83.47, 82.18 89.92, 68.93 93.05 M68.93 93.05 C54.22 90.93, 33.08 95.04, 22.98 93.05 M68.93 93.05 C56.2 94.06, 44.89 92.76, 22.98 93.05 M22.98 93.05 C3.94 90.53, 3.45 85.94, 0 70.07 M22.98 93.05 C4.86 94.92, -4.32 82.08, 0 70.07 M0 70.07 C3.95 55.26, -1.4 45.01, 0 22.98 M0 70.07 C0.45 54.49, 0.27 42.37, 0 22.98 M0 22.98 C-0.54 4.63, 10.79 -1.4, 22.98 0 M0 22.98 C-1.66 6.03, 7.02 -0.68, 22.98 0" stroke="#edba8b" stroke-width="4" fill="none"></path></g></g><g clip-path="url(#qpl1mjkmltLn0HGwV9nZi)"><g stroke-linecap="round" transform="translate(15.67537532092058 15.318999415712142) rotate(2.848187911387748 36.34586501481232 34.05260447568196)"><path d="M17.03 0 C32.79 4.71, 44.3 -2.67, 55.67 0 C62.14 1.46, 77.8 2.36, 72.69 17.03 C76.79 33.06, 74.72 34.29, 72.69 51.08 C72.17 60.76, 64.8 62.63, 55.67 68.11 C47.8 67.08, 37.22 65.99, 17.03 68.11 C1.23 73.02, -0.43 62.8, 0 51.08 C0.89 34.44, 0.68 23.96, 0 17.03 C4.26 7.98, 3.99 4.34, 17.03 0" stroke="none" stroke-width="0" fill="#c13037"></path><path d="M17.03 0 C29.59 -2.98, 41.3 -1.91, 55.67 0 M17.03 0 C28.27 -0.41, 35.15 1.36, 55.67 0 M55.67 0 C64.18 -1.53, 69.03 6.25, 72.69 17.03 M55.67 0 C70.05 3.19, 68.71 3.25, 72.69 17.03 M72.69 17.03 C69.41 32.53, 70.72 43.32, 72.69 51.08 M72.69 17.03 C70.82 27.14, 71.42 37.36, 72.69 51.08 M72.69 51.08 C73.3 62.84, 68.45 67.77, 55.67 68.11 M72.69 51.08 C77.1 64.16, 63.37 68.47, 55.67 68.11 M55.67 68.11 C41.07 65.54, 26.69 67.22, 17.03 68.11 M55.67 68.11 C41.62 67.22, 26.34 67.2, 17.03 68.11 M17.03 68.11 C9.52 71.51, -2.76 62.47, 0 51.08 M17.03 68.11 C2.41 71.11, 0.53 66.83, 0 51.08 M0 51.08 C-1.93 45.91, 2.75 39.23, 0 17.03 M0 51.08 C1.13 39.1, -1.85 24.55, 0 17.03 M0 17.03 C1.89 6.33, 2.94 1.54, 17.03 0 M0 17.03 C-1.85 6.6, 7.06 2.54, 17.03 0" stroke="#960e1c" stroke-width="4" fill="none"></path></g></g><g clip-path="url(#qpl1mjkmltLn0HGwV9nZi)"><g stroke-linecap="round" transform="translate(33.17887781748084 24.36718302929262) rotate(0 3.2660975634912006 2.635798033694641)"><path d="M4.15 0.47 C4.88 0.51, 5.66 0.15, 6.01 0.46 C6.36 0.77, 6.41 1.6, 6.26 2.35 C6.11 3.1, 5.64 4.43, 5.11 4.97 C4.59 5.51, 3.73 5.67, 3.09 5.58 C2.44 5.48, 1.78 4.7, 1.25 4.37 C0.71 4.04, 0.12 4.16, -0.11 3.6 C-0.34 3.03, -0.38 1.53, -0.12 0.97 C0.14 0.4, 0.85 0.33, 1.47 0.23 C2.09 0.13, 3.23 0.44, 3.59 0.36 C3.95 0.29, 3.54 -0.16, 3.62 -0.2 M3.87 -0.48 C4.65 -0.64, 5.34 -0.48, 5.7 -0.22 C6.06 0.04, 5.92 0.55, 6.03 1.1 C6.13 1.65, 6.6 2.57, 6.33 3.09 C6.06 3.6, 5.02 3.91, 4.4 4.2 C3.78 4.49, 3.37 4.82, 2.61 4.84 C1.85 4.85, 0.38 4.85, -0.18 4.28 C-0.75 3.71, -0.85 1.94, -0.77 1.41 C-0.69 0.89, -0.33 1.25, 0.29 1.14 C0.91 1.02, 2.33 0.97, 2.95 0.7 C3.56 0.43, 3.95 -0.43, 4 -0.48" stroke="none" stroke-width="0" fill="#c13037"></path><path d="M4.78 -0.22 C5.32 -0.14, 5.5 -0.02, 5.73 0.58 C5.95 1.18, 6.13 2.82, 6.14 3.37 C6.15 3.92, 6.17 3.6, 5.81 3.91 C5.44 4.22, 4.79 5.07, 3.96 5.23 C3.13 5.39, 1.44 5.2, 0.84 4.86 C0.25 4.53, 0.38 3.86, 0.39 3.21 C0.4 2.56, 0.65 1.44, 0.89 0.95 C1.13 0.46, 1.23 0.31, 1.84 0.27 C2.44 0.22, 4.13 0.63, 4.51 0.67 C4.89 0.72, 4.18 0.67, 4.11 0.54 M4.7 -0.78 C5.19 -0.65, 5 0.72, 5.19 1.46 C5.38 2.21, 5.69 3.08, 5.82 3.69 C5.96 4.3, 6.18 4.95, 5.98 5.13 C5.78 5.31, 5.22 4.89, 4.63 4.78 C4.04 4.67, 3.27 4.64, 2.43 4.45 C1.6 4.26, 0.06 4.03, -0.37 3.63 C-0.79 3.23, -0.56 2.65, -0.12 2.07 C0.31 1.5, 1.63 0.65, 2.24 0.19 C2.86 -0.27, 3.41 -0.52, 3.58 -0.69 C3.75 -0.85, 3.05 -1.06, 3.27 -0.81" stroke="#960e1c" stroke-width="4" fill="none"></path></g></g><g clip-path="url(#qpl1mjkmltLn0HGwV9nZi)"><g stroke-linecap="round" transform="translate(34.55407679158236 48.20396524705302) rotate(0 1.547098845864241 2.4638981619319793)"><path d="M0.85 -0.56 C1.15 -0.62, 1.55 0.26, 1.89 0.73 C2.23 1.2, 2.62 1.86, 2.9 2.26 C3.17 2.65, 3.62 2.7, 3.52 3.12 C3.42 3.54, 2.74 4.43, 2.27 4.79 C1.8 5.15, 0.95 5.43, 0.71 5.28 C0.47 5.13, 1.01 4.49, 0.84 3.88 C0.68 3.28, -0.17 2.24, -0.27 1.63 C-0.38 1.02, -0.14 0.59, 0.2 0.24 C0.54 -0.11, 1.64 -0.42, 1.76 -0.48 C1.88 -0.54, 0.89 -0.23, 0.9 -0.13 M2.14 -0.51 C2.6 -0.53, 3.35 0.36, 3.34 0.77 C3.34 1.18, 2.22 1.43, 2.14 1.95 C2.05 2.48, 2.72 3.29, 2.82 3.9 C2.93 4.52, 3.07 5.46, 2.77 5.62 C2.47 5.79, 1.35 5.36, 1.04 4.91 C0.72 4.45, 1.02 3.32, 0.88 2.88 C0.75 2.44, 0.34 2.5, 0.21 2.26 C0.08 2.03, -0.12 1.76, 0.09 1.45 C0.29 1.14, 1.31 0.64, 1.44 0.41 C1.56 0.19, 0.94 0.18, 0.86 0.1" stroke="none" stroke-width="0" fill="#c13037"></path><path d="M1.09 0.34 C1.5 0.21, 2.4 0.18, 2.67 0.33 C2.95 0.47, 2.76 0.81, 2.73 1.22 C2.7 1.63, 2.46 2.16, 2.48 2.79 C2.51 3.42, 3.17 4.65, 2.87 4.99 C2.58 5.32, 1.06 5.02, 0.71 4.8 C0.36 4.57, 0.93 4.02, 0.76 3.64 C0.59 3.26, -0.31 2.96, -0.3 2.51 C-0.29 2.06, 0.61 1.41, 0.81 0.94 C1.01 0.48, 0.84 -0.03, 0.9 -0.27 C0.96 -0.51, 1.01 -0.49, 1.2 -0.5 M1.41 0.3 C1.69 0.31, 1.95 -0.46, 2.16 -0.12 C2.37 0.22, 2.68 1.58, 2.64 2.34 C2.61 3.1, 2.22 4.1, 1.93 4.43 C1.63 4.76, 1.07 4.34, 0.89 4.31 C0.7 4.28, 0.98 4.45, 0.83 4.23 C0.69 4.02, 0.14 3.34, 0 3.03 C-0.15 2.72, -0.07 2.74, -0.03 2.36 C0.02 1.99, 0.1 1.23, 0.28 0.77 C0.45 0.31, 0.93 -0.32, 1.02 -0.4 C1.1 -0.49, 0.81 0.16, 0.8 0.26" stroke="#960e1c" stroke-width="4" fill="none"></path></g></g><g clip-path="url(#qpl1mjkmltLn0HGwV9nZi)"><g stroke-linecap="round" transform="translate(63.318655333206834 37.54617319776594) rotate(0 2.0054985038980817 1.3751989741015223)"><path d="M2.48 0.55 C2.87 0.57, 3.17 0, 3.31 0.07 C3.45 0.13, 3.35 0.55, 3.33 0.94 C3.32 1.32, 3.4 2.2, 3.21 2.38 C3.01 2.56, 2.52 1.93, 2.16 2.03 C1.81 2.13, 1.44 2.96, 1.09 2.99 C0.74 3.02, 0.28 2.49, 0.08 2.2 C-0.11 1.92, -0.22 1.66, -0.06 1.28 C0.11 0.91, 0.62 0.16, 1.07 -0.04 C1.51 -0.25, 2.54 0.06, 2.63 0.04 C2.72 0.02, 1.71 -0.17, 1.63 -0.15 M2.75 0.79 C2.92 0.85, 2.75 0.73, 3.03 0.76 C3.31 0.78, 4.2 0.72, 4.43 0.94 C4.66 1.17, 4.72 1.95, 4.41 2.12 C4.09 2.28, 3.15 1.98, 2.56 1.93 C1.98 1.88, 1.35 1.84, 0.88 1.79 C0.41 1.74, -0.11 1.84, -0.27 1.64 C-0.43 1.44, -0.26 0.95, -0.09 0.57 C0.09 0.19, 0.33 -0.7, 0.79 -0.64 C1.24 -0.57, 2.42 0.77, 2.62 0.95 C2.82 1.14, 2.01 0.43, 1.99 0.46" stroke="none" stroke-width="0" fill="#c13037"></path><path d="M2.54 0.51 C2.83 0.61, 3.11 0.1, 3.38 0.34 C3.65 0.58, 4.13 1.71, 4.15 1.96 C4.17 2.2, 3.89 1.75, 3.5 1.81 C3.12 1.87, 2.37 2.13, 1.82 2.33 C1.28 2.53, 0.63 3.07, 0.23 3.01 C-0.16 2.95, -0.5 2.45, -0.54 2 C-0.59 1.54, -0.28 0.54, -0.03 0.26 C0.23 -0.03, 0.6 0.42, 0.98 0.28 C1.37 0.14, 2.05 -0.54, 2.29 -0.58 C2.52 -0.62, 2.43 -0.13, 2.39 0.05 M1 -0.04 C1.43 -0.17, 1.87 -0.06, 2.45 -0.01 C3.03 0.03, 4.16 0.1, 4.49 0.25 C4.81 0.4, 4.67 0.67, 4.39 0.88 C4.11 1.08, 3.19 1.29, 2.81 1.47 C2.43 1.65, 2.49 1.95, 2.12 1.96 C1.75 1.97, 0.87 1.64, 0.58 1.52 C0.29 1.4, 0.53 1.37, 0.37 1.26 C0.21 1.16, -0.41 1.24, -0.37 0.9 C-0.34 0.56, 0.41 -0.73, 0.58 -0.79 C0.74 -0.85, 0.5 0.27, 0.61 0.55" stroke="#960e1c" stroke-width="4" fill="none"></path></g></g><g clip-path="url(#qpl1mjkmltLn0HGwV9nZi)"><g stroke-linecap="round" transform="translate(57.35945977876668 62.987354218644896) rotate(0 1.6616987603727011 2.4638981619318656)"><path d="M1.6 -0.09 C2.06 -0.22, 2.27 -0.15, 2.56 0.16 C2.86 0.47, 3.3 1.2, 3.36 1.78 C3.42 2.36, 3.04 3.27, 2.91 3.62 C2.79 3.97, 2.9 3.66, 2.62 3.88 C2.35 4.09, 1.65 4.78, 1.29 4.92 C0.93 5.06, 0.61 5.08, 0.48 4.71 C0.36 4.35, 0.53 3.26, 0.52 2.72 C0.52 2.19, 0.39 1.93, 0.46 1.5 C0.53 1.07, 0.72 0.45, 0.94 0.15 C1.15 -0.16, 1.56 -0.31, 1.75 -0.31 M1.18 -0.31 C1.64 -0.33, 2.49 0.14, 2.81 0.52 C3.13 0.9, 3.21 1.39, 3.11 1.97 C3.01 2.56, 2.25 3.65, 2.22 4.04 C2.18 4.44, 3.08 4.22, 2.92 4.32 C2.76 4.43, 1.58 4.77, 1.28 4.66 C0.97 4.55, 1.24 4.28, 1.09 3.67 C0.93 3.06, 0.24 1.39, 0.34 1.01 C0.45 0.62, 1.57 1.46, 1.73 1.37 C1.89 1.29, 1.21 0.66, 1.32 0.51 C1.43 0.35, 2.29 0.64, 2.39 0.44" stroke="none" stroke-width="0" fill="#c13037"></path><path d="M1.98 -0.57 C2.44 -0.62, 2.74 -0.21, 2.87 0.13 C3 0.46, 2.68 0.97, 2.76 1.46 C2.85 1.94, 3.54 2.54, 3.38 3.02 C3.22 3.51, 2.14 4.13, 1.78 4.35 C1.43 4.56, 1.44 4.49, 1.25 4.33 C1.05 4.16, 0.89 3.66, 0.62 3.34 C0.34 3.02, -0.31 2.83, -0.38 2.4 C-0.46 1.96, -0.1 1.15, 0.18 0.74 C0.46 0.33, 0.98 0.1, 1.28 -0.06 C1.59 -0.23, 1.93 -0.23, 2.01 -0.26 M0.64 -0.06 C0.99 -0.14, 1.27 0.54, 1.66 0.72 C2.04 0.9, 2.63 0.71, 2.93 1.01 C3.23 1.32, 3.68 2.1, 3.45 2.57 C3.23 3.04, 1.87 3.5, 1.59 3.85 C1.31 4.2, 1.87 4.5, 1.78 4.67 C1.69 4.83, 1.44 5.2, 1.06 4.83 C0.67 4.46, -0.45 3.25, -0.53 2.46 C-0.61 1.68, 0.15 0.41, 0.58 0.14 C1.01 -0.13, 1.93 0.93, 2.07 0.85 C2.2 0.77, 1.66 -0.19, 1.39 -0.34" stroke="#960e1c" stroke-width="4" fill="none"></path></g></g><g clip-path="url(#qpl1mjkmltLn0HGwV9nZi)"><g stroke-linecap="round" transform="translate(43.03447046520864 68.6027500295595) rotate(0 1.260599059593119 2.234698332915059)"><path d="M1.36 0.07 C1.61 0.34, 2.02 1.05, 2.3 1.45 C2.58 1.85, 3.04 2, 3.04 2.47 C3.04 2.93, 2.66 3.92, 2.31 4.26 C1.97 4.61, 1.22 4.65, 0.98 4.56 C0.74 4.47, 0.9 4.03, 0.85 3.72 C0.81 3.41, 0.8 3.2, 0.72 2.71 C0.64 2.22, 0.37 1.29, 0.37 0.8 C0.38 0.31, 0.56 -0.11, 0.73 -0.23 C0.9 -0.36, 1.27 -0.01, 1.39 0.04 C1.52 0.08, 1.49 0.07, 1.48 0.03 M1.68 0.02 C1.95 0.14, 2.88 0.64, 3.06 0.83 C3.24 1.03, 2.73 0.6, 2.77 1.19 C2.81 1.79, 3.57 3.78, 3.29 4.39 C3.01 5, 1.43 4.79, 1.1 4.84 C0.77 4.89, 1.45 5.1, 1.32 4.68 C1.18 4.26, 0.49 2.65, 0.27 2.33 C0.04 2.02, -0.1 3.23, -0.04 2.79 C0.02 2.35, 0.39 0.27, 0.64 -0.31 C0.89 -0.89, 1.5 -0.75, 1.46 -0.67 C1.43 -0.59, 0.32 0.07, 0.43 0.16" stroke="none" stroke-width="0" fill="#c13037"></path><path d="M0.96 -0.51 C1.37 -0.67, 1.96 -0.68, 2.15 -0.35 C2.33 -0.02, 2.05 0.93, 2.06 1.47 C2.06 2.02, 2.26 2.47, 2.2 2.9 C2.14 3.34, 1.81 3.88, 1.7 4.08 C1.59 4.28, 1.72 4.27, 1.53 4.12 C1.35 3.97, 0.89 3.59, 0.59 3.17 C0.28 2.75, -0.26 2.08, -0.29 1.6 C-0.32 1.12, 0.18 0.66, 0.4 0.29 C0.63 -0.07, 0.88 -0.5, 1.05 -0.57 C1.22 -0.65, 1.49 -0.32, 1.43 -0.16 M1.39 -0.13 C1.89 0, 2.41 0.8, 2.49 1.05 C2.57 1.29, 1.84 1.17, 1.87 1.35 C1.89 1.53, 2.51 1.53, 2.64 2.12 C2.77 2.7, 2.89 4.56, 2.63 4.88 C2.38 5.2, 1.67 4.28, 1.13 4.05 C0.59 3.81, -0.29 3.67, -0.61 3.48 C-0.92 3.28, -0.78 3.46, -0.76 2.88 C-0.74 2.3, -0.73 0.37, -0.5 -0.01 C-0.26 -0.39, 0.45 0.52, 0.65 0.58 C0.85 0.65, 0.67 0.38, 0.69 0.38" stroke="#960e1c" stroke-width="4" fill="none"></path></g></g><g clip-path="url(#qpl1mjkmltLn0HGwV9nZi)"><g stroke-linecap="round" transform="translate(51.056464480801196 47.28716593098534) rotate(0 1.6043988031184426 2.234698332915059)"><path d="M1.82 0.29 C2 0.48, 2.14 0.96, 2.34 1.29 C2.54 1.62, 3.03 1.9, 3.04 2.27 C3.05 2.64, 2.63 3.19, 2.39 3.51 C2.15 3.83, 1.83 4.06, 1.58 4.16 C1.33 4.26, 1.16 4.29, 0.9 4.09 C0.64 3.89, 0.25 3.35, 0.02 2.96 C-0.2 2.56, -0.67 2.23, -0.46 1.75 C-0.25 1.26, 0.83 0.35, 1.26 0.06 C1.69 -0.22, 1.89 0, 2.12 0.04 C2.35 0.08, 2.66 0.34, 2.64 0.3 M2.59 0.63 C2.8 0.86, 3.4 0.86, 3.33 1.17 C3.27 1.48, 2.17 2.01, 2.22 2.49 C2.28 2.97, 3.9 3.71, 3.67 4.07 C3.44 4.43, 1.48 4.8, 0.85 4.64 C0.23 4.48, 0.06 3.32, -0.06 3.13 C-0.17 2.94, 0.17 3.8, 0.15 3.51 C0.14 3.22, -0.24 1.91, -0.14 1.38 C-0.04 0.84, 0.36 0.5, 0.76 0.32 C1.15 0.14, 1.87 0.49, 2.24 0.31 C2.61 0.13, 2.9 -0.69, 2.99 -0.75" stroke="none" stroke-width="0" fill="#c13037"></path><path d="M1.33 0.49 C1.61 0.49, 1.94 0.51, 2.15 0.64 C2.37 0.77, 2.57 0.85, 2.62 1.28 C2.66 1.71, 2.56 2.74, 2.42 3.22 C2.29 3.7, 2.11 3.92, 1.81 4.16 C1.52 4.4, 0.95 4.82, 0.66 4.65 C0.38 4.48, 0.21 3.65, 0.12 3.14 C0.04 2.63, 0.21 2.08, 0.17 1.59 C0.12 1.1, -0.42 0.48, -0.15 0.19 C0.13 -0.09, 1.43 -0.2, 1.79 -0.13 C2.16 -0.06, 2.15 0.54, 2.04 0.61 M2.51 -0.03 C2.88 -0.31, 2.23 -0.59, 2.28 -0.38 C2.34 -0.18, 2.66 0.68, 2.85 1.2 C3.03 1.72, 3.68 2.25, 3.38 2.73 C3.09 3.21, 1.42 3.88, 1.1 4.1 C0.78 4.32, 1.59 4.22, 1.48 4.05 C1.37 3.89, 0.62 3.42, 0.43 3.11 C0.23 2.8, 0.36 2.52, 0.31 2.2 C0.26 1.87, -0.12 1.68, 0.12 1.16 C0.36 0.63, 1.53 -0.76, 1.75 -0.95 C1.96 -1.13, 1.41 -0.28, 1.4 0.05" stroke="#960e1c" stroke-width="4" fill="none"></path></g></g><g clip-path="url(#qpl1mjkmltLn0HGwV9nZi)"><g stroke-linecap="round" transform="translate(70.08005028920616 55.88215951912002) rotate(0 2.234698332915059 3.2660975634912575)"><path d="M1.41 0.07 C1.81 -0.1, 2.54 -0.06, 2.97 0.15 C3.4 0.36, 3.74 0.59, 3.99 1.35 C4.24 2.1, 4.58 3.87, 4.45 4.68 C4.31 5.49, 3.57 5.77, 3.17 6.18 C2.78 6.59, 2.46 7.23, 2.08 7.17 C1.69 7.1, 1.28 6.27, 0.86 5.78 C0.43 5.29, -0.49 5.01, -0.46 4.22 C-0.43 3.43, 0.62 1.68, 1.05 1.04 C1.48 0.41, 1.93 0.55, 2.12 0.41 C2.31 0.26, 2.37 0.17, 2.21 0.16 M3.13 -0.49 C3.4 -0.16, 2.93 1.05, 3.29 1.7 C3.64 2.36, 5.16 2.81, 5.27 3.44 C5.37 4.07, 4.37 4.94, 3.9 5.48 C3.43 6.02, 2.91 6.46, 2.43 6.66 C1.95 6.87, 1.58 7.04, 1.03 6.7 C0.48 6.35, -0.67 5.57, -0.86 4.6 C-1.05 3.63, -0.34 1.75, -0.09 0.89 C0.16 0.03, 0.03 -0.3, 0.65 -0.56 C1.27 -0.81, 3.1 -0.66, 3.61 -0.64 C4.12 -0.62, 3.97 -0.63, 3.69 -0.42" stroke="none" stroke-width="0" fill="#c13037"></path><path d="M1.45 -0.41 C1.89 -0.61, 2.89 -0.36, 3.28 0.02 C3.66 0.39, 3.64 1.3, 3.74 1.85 C3.84 2.41, 4 2.61, 3.89 3.32 C3.79 4.03, 3.42 5.5, 3.11 6.11 C2.81 6.73, 2.35 7.12, 2.05 7 C1.75 6.87, 1.66 5.89, 1.33 5.37 C1 4.85, 0.32 4.44, 0.08 3.88 C-0.17 3.31, -0.48 2.63, -0.13 2.01 C0.21 1.38, 1.88 0.53, 2.14 0.12 C2.39 -0.3, 1.52 -0.46, 1.4 -0.48 M2.28 0.54 C2.82 0.8, 3.32 0.86, 3.66 1.34 C4 1.83, 4.19 2.87, 4.33 3.44 C4.46 4.01, 4.61 4.26, 4.46 4.77 C4.3 5.29, 4.1 6.34, 3.4 6.52 C2.69 6.7, 0.76 6.19, 0.22 5.86 C-0.31 5.52, 0.05 4.98, 0.16 4.51 C0.28 4.04, 0.76 3.66, 0.93 3.02 C1.1 2.39, 0.81 1.3, 1.2 0.69 C1.59 0.09, 3.04 -0.57, 3.29 -0.6 C3.55 -0.63, 2.93 0.2, 2.71 0.53" stroke="#960e1c" stroke-width="4" fill="none"></path></g></g><g clip-path="url(#qpl1mjkmltLn0HGwV9nZi)"><g stroke-linecap="round" transform="translate(75.23704644208703 31.24317789980023) rotate(0 1.0886991878304002 1.1459991450847156)"><path d="M1.42 0.69 C1.73 0.74, 2.14 0.5, 2.19 0.7 C2.23 0.91, 1.65 1.78, 1.7 1.93 C1.75 2.08, 2.53 1.49, 2.49 1.61 C2.45 1.73, 1.77 2.55, 1.46 2.63 C1.16 2.72, 1.02 2.35, 0.67 2.13 C0.33 1.92, -0.64 1.59, -0.62 1.36 C-0.6 1.12, 0.66 0.93, 0.78 0.74 C0.91 0.54, 0.1 0.41, 0.14 0.2 C0.17 0, 0.78 -0.58, 1.02 -0.5 C1.26 -0.43, 1.55 0.53, 1.58 0.66 M1.2 0.9 C1.24 0.96, 0.72 1.06, 0.82 0.92 C0.91 0.78, 1.69 0.07, 1.77 0.06 C1.85 0.05, 1.22 0.64, 1.29 0.86 C1.36 1.08, 2.15 1.24, 2.19 1.37 C2.24 1.49, 2.04 1.49, 1.55 1.59 C1.06 1.69, -0.58 1.95, -0.74 1.96 C-0.9 1.96, 0.34 1.83, 0.57 1.61 C0.81 1.39, 0.55 0.87, 0.66 0.65 C0.77 0.42, 1.25 0.25, 1.24 0.26 C1.23 0.27, 0.65 0.8, 0.6 0.71" stroke="none" stroke-width="0" fill="#c13037"></path><path d="M0.64 0.51 C1.03 0.32, 1.84 -0.3, 2.09 -0.26 C2.33 -0.22, 2.18 0.39, 2.11 0.74 C2.05 1.09, 1.66 1.63, 1.69 1.85 C1.72 2.06, 2.44 2.08, 2.28 2.05 C2.12 2.01, 1.1 1.73, 0.74 1.64 C0.38 1.54, 0.18 1.61, 0.1 1.47 C0.03 1.32, 0.39 0.98, 0.3 0.79 C0.2 0.6, -0.61 0.48, -0.47 0.33 C-0.33 0.18, 0.9 -0.06, 1.15 -0.12 C1.4 -0.18, 1.05 -0.14, 1.02 -0.04 M-0.05 -0.27 C0.05 -0.33, 1.14 -0.11, 1.64 0.19 C2.14 0.49, 2.83 1.28, 2.93 1.54 C3.03 1.8, 2.35 1.75, 2.25 1.75 C2.16 1.74, 2.57 1.35, 2.37 1.51 C2.17 1.67, 1.5 2.48, 1.06 2.7 C0.61 2.93, -0.1 3.07, -0.31 2.88 C-0.53 2.68, -0.2 1.95, -0.24 1.55 C-0.28 1.14, -0.63 0.76, -0.56 0.45 C-0.49 0.14, -0.03 -0.2, 0.2 -0.32 C0.43 -0.43, 0.74 -0.25, 0.83 -0.25" stroke="#960e1c" stroke-width="4" fill="none"></path></g></g><g clip-path="url(#qpl1mjkmltLn0HGwV9nZi)"><g stroke-linecap="round" transform="translate(51.1710643953096 27.23218089200418) rotate(0 0.1718998717627187 0.17189987176266186)"><path d="M0.57 0.25 C0.68 0.1, 0.44 -0.67, 0.39 -0.56 C0.35 -0.46, 0.3 0.81, 0.3 0.86 C0.3 0.92, 0.4 -0.07, 0.4 -0.23 C0.4 -0.39, 0.44 -0.2, 0.29 -0.1 C0.14 0, -0.55 0.37, -0.51 0.39 C-0.47 0.4, 0.44 0.06, 0.55 -0.02 C0.66 -0.1, 0.21 -0.1, 0.16 -0.08 C0.1 -0.06, 0.18 -0.02, 0.22 0.1 C0.25 0.21, 0.47 0.54, 0.37 0.61 C0.28 0.67, -0.29 0.68, -0.35 0.5 M-0.69 0.75 C-0.64 0.47, -0.61 -0.91, -0.41 -0.92 C-0.22 -0.93, 0.26 0.42, 0.48 0.67 C0.7 0.92, 0.89 0.58, 0.91 0.56 C0.92 0.54, 0.67 0.65, 0.59 0.55 C0.5 0.45, 0.39 0, 0.42 -0.05 C0.44 -0.1, 0.87 0.26, 0.73 0.24 C0.6 0.22, -0.12 -0.24, -0.38 -0.18 C-0.65 -0.11, -0.87 0.46, -0.84 0.64 C-0.81 0.81, -0.42 1.04, -0.2 0.87 C0.03 0.7, 0.56 -0.16, 0.5 -0.4" stroke="none" stroke-width="0" fill="#c13037"></path><path d="M0.11 -0.27 C-0.04 -0.41, -0.36 -0.33, -0.4 -0.21 C-0.45 -0.1, -0.22 0.43, -0.18 0.39 C-0.14 0.36, -0.19 -0.47, -0.15 -0.43 C-0.1 -0.39, 0.06 0.49, 0.08 0.65 C0.11 0.81, 0.01 0.54, -0.01 0.51 C-0.03 0.48, -0.1 0.58, -0.05 0.47 C0 0.36, 0.22 -0.1, 0.31 -0.16 C0.4 -0.22, 0.64 0.11, 0.51 0.11 C0.37 0.1, -0.43 -0.18, -0.49 -0.19 C-0.55 -0.2, -0.03 -0.1, 0.16 0.03 M-0.45 0.16 C-0.38 -0.06, 0.42 -0.48, 0.72 -0.52 C1.02 -0.56, 1.34 -0.09, 1.34 -0.09 C1.34 -0.1, 0.9 -0.51, 0.72 -0.55 C0.54 -0.6, 0.42 -0.5, 0.27 -0.37 C0.11 -0.23, -0.14 0.18, -0.23 0.25 C-0.32 0.32, -0.24 0.19, -0.27 0.04 C-0.29 -0.11, -0.46 -0.78, -0.39 -0.63 C-0.32 -0.48, 0.14 0.77, 0.14 0.94 C0.14 1.11, -0.38 0.38, -0.37 0.39 C-0.36 0.39, 0.06 0.99, 0.2 0.97" stroke="#960e1c" stroke-width="4" fill="none"></path></g></g><g clip-path="url(#qpl1mjkmltLn0HGwV9nZi)"><g stroke-linecap="round" transform="translate(43.37827020873408 36.62937388169803) rotate(0 0.5729995725423009 0.5156996152880993)"><path d="M1.26 0.11 C1.39 0.14, 0.52 0.29, 0.42 0.25 C0.33 0.21, 0.58 -0.31, 0.69 -0.13 C0.81 0.05, 1.17 1.13, 1.14 1.34 C1.11 1.55, 0.68 1.18, 0.53 1.14 C0.37 1.1, 0.25 1.14, 0.19 1.1 C0.13 1.06, 0.08 1.1, 0.15 0.89 C0.22 0.67, 0.52 -0.02, 0.61 -0.19 C0.7 -0.36, 0.78 -0.08, 0.7 -0.14 C0.61 -0.19, 0.21 -0.62, 0.12 -0.52 C0.04 -0.42, 0.19 0.28, 0.19 0.46 M1.02 0.58 C1.34 0.58, 1.12 0.37, 1.18 0.37 C1.23 0.37, 1.42 0.41, 1.34 0.58 C1.27 0.74, 0.81 1.36, 0.73 1.35 C0.64 1.35, 0.93 0.76, 0.83 0.57 C0.73 0.37, 0.15 0.16, 0.13 0.16 C0.11 0.15, 0.59 0.42, 0.71 0.54 C0.84 0.67, 1.03 1.08, 0.87 0.91 C0.7 0.74, -0.12 -0.31, -0.29 -0.47 C-0.47 -0.63, -0.16 0.01, -0.17 -0.03 C-0.18 -0.06, -0.61 -0.75, -0.35 -0.68" stroke="none" stroke-width="0" fill="#c13037"></path><path d="M0.68 -0.45 C0.72 -0.44, 0.01 -0.24, 0.13 -0.15 C0.25 -0.05, 1.22 0, 1.41 0.11 C1.61 0.22, 1.35 0.33, 1.3 0.52 C1.25 0.71, 1.29 1.07, 1.11 1.23 C0.93 1.39, 0.36 1.66, 0.22 1.5 C0.07 1.34, 0.3 0.42, 0.23 0.27 C0.17 0.12, -0.16 0.51, -0.18 0.6 C-0.21 0.68, -0.08 0.87, 0.11 0.79 C0.29 0.71, 0.86 0.16, 0.94 0.11 C1.01 0.07, 0.74 0.51, 0.58 0.52 M0.41 0.41 C0.49 0.26, 0.18 0.25, 0.18 0.21 C0.19 0.17, 0.32 0.11, 0.44 0.17 C0.57 0.22, 0.94 0.47, 0.94 0.55 C0.95 0.63, 0.71 0.55, 0.48 0.63 C0.25 0.71, -0.54 1.12, -0.46 1.04 C-0.38 0.97, 0.8 0.27, 0.94 0.16 C1.09 0.05, 0.37 0.34, 0.42 0.37 C0.46 0.4, 1.15 0.53, 1.24 0.35 C1.32 0.17, 0.86 -0.81, 0.92 -0.7 C0.98 -0.59, 1.75 0.8, 1.61 1.01" stroke="#960e1c" stroke-width="4" fill="none"></path></g></g><g clip-path="url(#qpl1mjkmltLn0HGwV9nZi)"><g stroke-linecap="round" transform="translate(29.626280467718402 39.723571573426625) rotate(0 0.22919982901692038 2.0054985038981386)"><path d="M0.37 -0.17 C0.34 -0.12, 0.45 0.19, 0.49 0.61 C0.53 1.03, 0.7 1.84, 0.59 2.33 C0.48 2.82, -0.09 3.37, -0.18 3.55 C-0.27 3.73, 0.09 3.42, 0.05 3.39 C0.02 3.35, -0.45 3.51, -0.38 3.35 C-0.31 3.18, 0.31 2.76, 0.46 2.39 C0.6 2.02, 0.67 1.45, 0.5 1.14 C0.34 0.83, -0.56 0.65, -0.54 0.52 C-0.52 0.4, 0.46 0.43, 0.62 0.38 C0.79 0.34, 0.51 0.26, 0.48 0.26 M-0.19 -0.35 C-0.4 -0.32, -0.57 0.44, -0.52 0.88 C-0.46 1.31, -0.1 2.02, 0.12 2.27 C0.34 2.51, 0.89 2.21, 0.81 2.36 C0.73 2.51, -0.23 3.04, -0.34 3.17 C-0.45 3.3, 0.19 2.99, 0.14 3.16 C0.08 3.33, -0.68 4.34, -0.66 4.17 C-0.63 4, 0.15 2.56, 0.3 2.13 C0.44 1.7, 0.13 1.93, 0.22 1.6 C0.31 1.27, 0.78 0.32, 0.83 0.14 C0.88 -0.04, 0.79 0.65, 0.53 0.51" stroke="none" stroke-width="0" fill="#c13037"></path><path d="M0.56 -0.34 C0.7 -0.35, 0.98 0.29, 0.86 0.62 C0.74 0.95, -0.1 1.21, -0.18 1.63 C-0.25 2.06, 0.25 2.7, 0.42 3.17 C0.59 3.64, 0.87 4.33, 0.83 4.46 C0.8 4.59, 0.28 4.3, 0.23 3.96 C0.17 3.63, 0.53 2.8, 0.51 2.44 C0.49 2.07, 0.25 2.01, 0.11 1.78 C-0.02 1.55, -0.28 1.28, -0.28 1.03 C-0.28 0.78, 0.1 0.44, 0.1 0.29 C0.1 0.14, -0.22 0.16, -0.27 0.11 M-0.17 -0.76 C-0.06 -0.61, 0.43 0.88, 0.45 1.34 C0.46 1.8, -0.09 1.56, -0.09 1.99 C-0.09 2.42, 0.33 3.57, 0.45 3.93 C0.56 4.28, 0.76 3.98, 0.59 4.14 C0.42 4.29, -0.62 5.14, -0.55 4.86 C-0.48 4.59, 0.85 2.93, 1.03 2.49 C1.2 2.05, 0.59 2.54, 0.49 2.22 C0.39 1.91, 0.65 1, 0.44 0.62 C0.24 0.23, -0.88 0, -0.75 -0.06 C-0.62 -0.13, 1.19 0.14, 1.22 0.21" stroke="#960e1c" stroke-width="4" fill="none"></path></g></g><g clip-path="url(#qpl1mjkmltLn0HGwV9nZi)"><g stroke-linecap="round" transform="translate(23.781684827786762 59.32015695437394) rotate(0 0.4010997007796391 1.1459991450846019)"><path d="M-0.25 -0.47 C-0.34 -0.44, -0.04 0.26, 0.04 0.52 C0.12 0.79, 0.16 1.08, 0.21 1.12 C0.26 1.16, 0.26 0.55, 0.35 0.77 C0.44 0.99, 0.68 2.15, 0.75 2.44 C0.82 2.73, 0.83 2.57, 0.76 2.52 C0.69 2.47, 0.44 2.39, 0.34 2.15 C0.24 1.9, 0.15 1.3, 0.18 1.03 C0.21 0.75, 0.54 0.7, 0.52 0.49 C0.5 0.28, 0.19 -0.21, 0.07 -0.22 C-0.05 -0.24, -0.22 0.25, -0.21 0.4 M-0.16 -0.03 C-0.15 -0.02, -0.43 -0.57, -0.11 -0.34 C0.21 -0.1, 1.57 0.99, 1.75 1.38 C1.92 1.77, 0.99 1.74, 0.94 1.99 C0.88 2.25, 1.54 2.81, 1.44 2.89 C1.34 2.97, 0.5 2.87, 0.34 2.49 C0.18 2.12, 0.69 0.91, 0.48 0.64 C0.27 0.37, -0.9 0.87, -0.92 0.87 C-0.95 0.88, 0.16 0.89, 0.36 0.66 C0.56 0.43, 0.17 -0.53, 0.27 -0.52 C0.36 -0.5, 0.93 0.54, 0.94 0.73" stroke="none" stroke-width="0" fill="#c13037"></path><path d="M0.92 0.09 C1.02 0.07, 0.89 0.6, 0.8 0.76 C0.71 0.92, 0.33 0.96, 0.37 1.05 C0.41 1.15, 0.9 1.17, 1.04 1.34 C1.17 1.51, 1.29 2.01, 1.2 2.06 C1.12 2.12, 0.72 1.81, 0.53 1.68 C0.35 1.54, 0.21 1.38, 0.08 1.25 C-0.04 1.12, -0.19 1.08, -0.22 0.89 C-0.24 0.71, -0.11 0.36, -0.05 0.13 C0.02 -0.11, 0.07 -0.59, 0.16 -0.51 C0.24 -0.42, 0.5 0.48, 0.48 0.63 M0.67 -0.71 C0.75 -0.6, 1.69 0.91, 1.62 1.27 C1.54 1.62, 0.29 1.3, 0.23 1.44 C0.17 1.58, 1.19 2.12, 1.26 2.09 C1.33 2.06, 0.83 1.07, 0.65 1.25 C0.47 1.44, 0.27 3.27, 0.2 3.22 C0.13 3.16, 0.23 1.41, 0.22 0.91 C0.22 0.42, 0.33 0.36, 0.18 0.27 C0.02 0.18, -0.89 0.48, -0.72 0.38 C-0.54 0.28, 1.01 -0.23, 1.23 -0.33 C1.45 -0.44, 0.71 -0.33, 0.6 -0.23" stroke="#960e1c" stroke-width="4" fill="none"></path></g></g><g clip-path="url(#qpl1mjkmltLn0HGwV9nZi)"><g stroke-linecap="round" transform="translate(29.053280895176158 69.40494943111867) rotate(0 0.9167993160676815 0.4010997007796959)"><path d="M1.1 0.39 C1.42 0.38, 1.43 0.25, 1.57 0.26 C1.7 0.26, 1.93 0.3, 1.92 0.42 C1.92 0.54, 1.62 0.97, 1.53 0.98 C1.44 0.99, 1.54 0.61, 1.38 0.48 C1.22 0.36, 0.68 0.22, 0.56 0.22 C0.43 0.22, 0.61 0.38, 0.62 0.46 C0.62 0.53, 0.69 0.79, 0.58 0.67 C0.46 0.54, -0.05 -0.18, -0.09 -0.29 C-0.12 -0.41, 0.3 0.01, 0.36 -0.02 C0.43 -0.05, 0.12 -0.5, 0.3 -0.46 M1.61 0.12 C1.83 0.04, 2 0.68, 1.88 0.56 C1.76 0.45, 0.9 -0.62, 0.87 -0.58 C0.85 -0.54, 1.61 0.6, 1.74 0.8 C1.87 1, 1.93 0.53, 1.64 0.6 C1.36 0.68, 0.16 1.29, 0.02 1.26 C-0.12 1.23, 0.7 0.68, 0.79 0.43 C0.87 0.17, 0.55 -0.09, 0.53 -0.27 C0.52 -0.45, 0.47 -0.81, 0.71 -0.66 C0.94 -0.5, 1.75 0.42, 1.93 0.66 C2.12 0.91, 1.9 1.01, 1.82 0.83" stroke="none" stroke-width="0" fill="#c13037"></path><path d="M0.89 0.27 C1.05 0.17, 0.98 0.18, 1.06 0.16 C1.14 0.14, 1.28 0.12, 1.36 0.17 C1.45 0.22, 1.65 0.4, 1.58 0.46 C1.52 0.52, 1.23 0.48, 0.96 0.53 C0.7 0.59, 0.03 0.86, -0.02 0.8 C-0.07 0.75, 0.61 0.27, 0.67 0.19 C0.72 0.1, 0.24 0.28, 0.3 0.29 C0.37 0.3, 0.92 0.37, 1.08 0.24 C1.24 0.12, 1.16 -0.54, 1.27 -0.46 C1.39 -0.39, 1.88 0.54, 1.78 0.68 M0.1 -0.06 C0.39 -0.04, 2.46 0.21, 2.61 0.31 C2.77 0.42, 1.31 0.66, 1.03 0.57 C0.76 0.48, 0.92 -0.38, 0.95 -0.2 C0.98 -0.03, 1.34 1.43, 1.2 1.62 C1.06 1.81, 0.36 1.1, 0.13 0.95 C-0.11 0.8, -0.21 0.78, -0.2 0.7 C-0.19 0.62, -0.07 0.72, 0.19 0.46 C0.44 0.21, 1.08 -0.71, 1.35 -0.85 C1.61 -0.98, 1.96 -0.38, 1.78 -0.37 C1.61 -0.35, 0.53 -0.95, 0.27 -0.77" stroke="#960e1c" stroke-width="4" fill="none"></path></g></g><g clip-path="url(#qpl1mjkmltLn0HGwV9nZi)"><g stroke-linecap="round" transform="translate(38.79427362839556 56.91355874969622) rotate(0 0.6875994870507611 0.40109970077958224)"><path d="M0.34 -0.24 C0.31 -0.19, 0.35 0.26, 0.48 0.44 C0.61 0.62, 0.95 0.88, 1.13 0.86 C1.31 0.83, 1.66 0.36, 1.57 0.28 C1.47 0.19, 0.73 0.35, 0.56 0.35 C0.38 0.34, 0.66 0.1, 0.51 0.26 C0.36 0.41, -0.27 1.23, -0.33 1.27 C-0.38 1.32, 0.1 0.61, 0.2 0.53 C0.3 0.44, 0.14 0.84, 0.29 0.76 C0.43 0.69, 0.97 0.16, 1.07 0.08 C1.18 0.01, 1.11 0.42, 0.93 0.31 M0.52 -0.52 C0.71 -0.49, 1.51 0.57, 1.63 0.8 C1.75 1.02, 1.37 0.82, 1.22 0.85 C1.06 0.87, 0.87 0.79, 0.7 0.94 C0.52 1.09, 0.11 1.62, 0.17 1.73 C0.24 1.84, 0.98 1.73, 1.1 1.61 C1.22 1.49, 1.16 1.16, 0.91 1.03 C0.65 0.91, -0.32 0.93, -0.44 0.85 C-0.55 0.76, 0.17 0.59, 0.2 0.54 C0.24 0.49, -0.42 0.58, -0.22 0.54 C-0.01 0.51, 1.27 0.26, 1.41 0.33" stroke="none" stroke-width="0" fill="#c13037"></path><path d="M0.41 -0.51 C0.59 -0.39, 1.07 0.51, 1.16 0.69 C1.26 0.87, 0.97 0.49, 1 0.58 C1.02 0.67, 1.28 1.17, 1.3 1.24 C1.32 1.3, 1.34 0.92, 1.12 0.95 C0.91 0.98, 0.06 1.54, 0 1.42 C-0.06 1.3, 0.71 0.36, 0.76 0.23 C0.82 0.11, 0.38 0.69, 0.33 0.68 C0.28 0.68, 0.52 0.3, 0.48 0.18 C0.43 0.05, -0.1 -0.03, 0.05 -0.04 C0.2 -0.05, 1.37 0.09, 1.39 0.12 M1.36 -0.32 C1.67 -0.41, 1.18 -0.33, 1.2 -0.21 C1.22 -0.09, 1.43 0.11, 1.48 0.38 C1.54 0.65, 1.76 1.23, 1.54 1.41 C1.32 1.59, 0.38 1.68, 0.16 1.45 C-0.06 1.22, 0.36 0.26, 0.23 0 C0.1 -0.25, -0.67 -0.03, -0.6 -0.1 C-0.53 -0.17, 0.4 -0.33, 0.65 -0.4 C0.9 -0.47, 1.06 -0.6, 0.88 -0.5 C0.71 -0.41, -0.44 -0.01, -0.4 0.17 C-0.36 0.35, 0.89 0.55, 1.11 0.59" stroke="#960e1c" stroke-width="4" fill="none"></path></g></g><g clip-path="url(#qpl1mjkmltLn0HGwV9nZi)"><g stroke-linecap="round" transform="translate(35.47087610765004 61.612155244543146) rotate(0 0.5729995725423578 0.6875994870508748)"><path d="M0.23 -0.02 C0.31 -0.02, 0.2 -0.4, 0.46 -0.25 C0.71 -0.1, 1.66 0.61, 1.77 0.85 C1.89 1.09, 1.25 1.05, 1.17 1.21 C1.1 1.36, 1.46 1.73, 1.33 1.78 C1.2 1.83, 0.56 1.76, 0.39 1.52 C0.23 1.27, 0.51 0.48, 0.35 0.32 C0.18 0.15, -0.61 0.51, -0.6 0.53 C-0.6 0.55, 0.18 0.57, 0.38 0.43 C0.57 0.28, 0.46 -0.35, 0.57 -0.33 C0.69 -0.32, 1.06 0.38, 1.07 0.51 M1.41 0.68 C1.61 0.9, 1.66 1.02, 1.69 0.91 C1.71 0.8, 1.56 0, 1.55 -0.01 C1.54 -0.02, 1.67 0.8, 1.64 0.86 C1.6 0.92, 1.43 0.16, 1.32 0.36 C1.22 0.56, 1.17 1.96, 1.02 2.07 C0.88 2.19, 0.48 1.31, 0.46 1.05 C0.44 0.79, 1.08 0.61, 0.89 0.54 C0.7 0.46, -0.67 0.57, -0.67 0.6 C-0.68 0.64, 0.65 0.78, 0.86 0.74 C1.07 0.7, 0.51 0.59, 0.57 0.39" stroke="none" stroke-width="0" fill="#c13037"></path><path d="M0.75 -0.47 C0.87 -0.4, 1.58 0.6, 1.58 0.83 C1.58 1.05, 0.79 0.82, 0.76 0.9 C0.73 0.97, 1.4 1.31, 1.41 1.28 C1.42 1.24, 1.02 0.57, 0.84 0.69 C0.66 0.81, 0.44 2.03, 0.33 2 C0.22 1.96, 0.22 0.81, 0.19 0.5 C0.15 0.18, 0.22 0.16, 0.12 0.12 C0.03 0.08, -0.54 0.29, -0.37 0.24 C-0.19 0.18, 0.97 -0.16, 1.16 -0.22 C1.35 -0.29, 0.86 -0.21, 0.78 -0.15 M1.32 -0.37 C1.16 -0.35, 0.33 -0.86, 0.17 -0.59 C0.02 -0.32, 0.36 0.86, 0.37 1.26 C0.38 1.66, 0.28 1.96, 0.23 1.81 C0.18 1.67, 0.03 0.4, 0.07 0.41 C0.12 0.42, 0.41 1.73, 0.5 1.89 C0.59 2.04, 0.65 1.52, 0.63 1.33 C0.6 1.14, 0.35 1.03, 0.33 0.76 C0.31 0.5, 0.33 -0.13, 0.49 -0.26 C0.65 -0.4, 1.34 -0.03, 1.3 -0.05 C1.25 -0.06, 0.48 -0.46, 0.23 -0.35" stroke="#960e1c" stroke-width="4" fill="none"></path></g></g></svg>